DBRep_DrawableShape

CASCADE Topology V3, (c) Open Cascade
Locations 8
1
              1               0               0              -0 
              0               1               0 1.4210854715202e-14 
              0               0               1               0 
1
              1               0               0               0 
              0               1               0               0 
              0               0               1               0 
2  1 1 2 1 0
2  2 -1 1 -1 0
1
              1               0               0 1.06581410364015e-14 
              0               1               0              -0 
              0               0               1               0 
1
              1               0               0               0 
              0               1               0               0 
              0               0               1              25 
2  5 1 6 1 0
2  6 -1 5 -1 0
Curve2ds 32
1 0 0 -1 0 
1 9.0000000000000302 0 0 1 
1 0 0 0 1 
7 0 0  1 2 2  9.0000000000000302 1  -8.9999999459513571 1 
 -8 2 7.9999999342694714 2
1 -8.9999999459513571 0 0 1 
1 6.2831853071795862 0 0 1 
1 6.2831853071795862 0 -1 0 
1 1.5707963267948966 0 0 1 
1 -14 0 0 1 
1 -3.1415926535897931 1 1 0 
1 0 0 1 0 
1 14 0 0 1 
1 1.5707963267948966 0 0 1 
7 0 0  1 2 2  -14 1  14 1 
 -6.0000000000000195 2 5.9999999639675732 2
1 6.2831853071795862 0 -1 0 
1 3.1415926535897931 0 0 1 
1 -9.0000000000000284 0 0 1 
1 -3.1415926535897931 1 1 0 
1 0 0 1 0 
1 8.9999999459513589 0 0 1 
1 3.1415926535897931 0 0 1 
7 0 0  1 2 2  -9.0000000000000284 1  8.9999999459513589 1 
 -8 2 8 2
1 6.2831853071795862 0 -1 0 
1 4.7123889803846897 0 0 1 
1 -14 0 0 1 
1 3.1415926535897931 1 1 0 
1 0 0 -1 0 
1 14 0 0 1 
1 4.7123889803846897 0 0 1 
7 0 0  1 2 2  14 1  -14 1 
 -6 2 5.999999963967575 2
1 6.2831853071795862 0 -1 0 
1 3.1415926535897931 1 1 0 
Curves 24
1 -20 0 0 0 1 0 
7 0 0  1 2 2  -20 -9.0000000000000142 0  -9.9999999999999893 -8 25 
 0 2 1 2
1 -10 0 0 0 1 0 
7 0 0  1 2 2  -20 8.9999999459513713 0  -9.9999999999999893 7.9999999342694705 25 
 0 2 1 2
2 -14 -9.0000000000000284 0 0 0 -1 -1 0 0 0 1 0 6
7 0 0  1 2 2  -14 -15.000000000000012 0  -6.0000000000000133 -12 25.000000000000004 
 0 2 1 2
2 -6.0000000000000213 -8 0 0 0 1 1 0 0 0 1 0 4
1 0 -15 0 1 0 0 
7 0 0  1 2 2  14 -14.999999999999986 0  5.9999999639675838 -12 25 
 0 2 1 2
1 0 -12 0 1 0 0 
2 14 -9.0000000000000284 0 0 0 -1 -1 0 0 0 1 0 6
7 0 0  1 2 2  20 -9.0000000000000142 0  9.9999999639675838 -8.0000000000000018 25 
 0 2 1 2
2 5.9999999639675732 -8 0 0 0 1 1 0 0 0 1 0 4
1 20 0 0 0 1 0 
7 0 0  1 2 2  20 8.9999999459513713 0  10.000000000000011 8 25 
 0 2 1 2
1 10 0 0 0 1 0 
2 14 8.9999999459513589 0 0 0 -1 -1 0 0 0 1 0 6
7 0 0  1 2 2  14.000000000000004 14.999999945951373 0  5.9999999639675856 12 25 
 0 2 1 2
2 5.999999963967575 8 0 0 0 1 1 0 0 0 1 0 4
1 0 15 0 1 0 0 
7 0 0  1 2 2  -14 15.000000000000014 0  -5.9999999999999893 12 25 
 0 2 1 2
1 0 12 0 1 0 0 
2 -14 8.9999999459513589 0 0 0 -1 -1 0 0 0 1 0 6
2 -6 7.9999999342694714 0 0 0 1 1 0 0 0 1 0 4
Polygon3D 0
PolygonOnTriangulations 48
2 1 2 
p 0.400000002 1 -9.00000000000003 8.99999994595136 
2 132 1 
p 0.400000002 1 -9.00000000000003 8.99999994595136 
2 1 3 
p 0.400000002 1 0 1 
2 33 35 
p 0.400000002 1 0 1 
2 3 4 
p 0.400000002 1 -8 7.99999993426947 
2 1 2 
p 0.400000002 1 -8 7.99999993426947 
2 2 4 
p 0.400000002 1 0 1 
2 1 34 
p 0.400000002 1 0 1 
33 1 2 3 4 5 6 7 8 9 10 11 12 13 14 15 16 17 18 19 20 21 22 23 24 25 26 27 28 29 30 31 32 33 
p 0.240000008 1 4.71238898038469 4.76147636559703 4.81056375080937 4.85965113602171 4.90873852123405 4.95782590644639 5.00691329165873 5.05600067687107 5.10508806208341 5.15417544729575 5.20326283250809 5.25235021772043 5.30143760293277 5.35052498814511 5.39961237335745 5.44869975856979 5.49778714378214 5.54687452899448 5.59596191420682 5.64504929941916 5.6941366846315 5.74322406984384 5.79231145505618 5.84139884026852 5.89048622548086 5.9395736106932 5.98866099590554 6.03774838111788 6.08683576633022 6.13592315154256 6.1850105367549 6.23409792196724 6.28318530717959 
33 100 101 102 103 104 105 106 107 108 109 110 111 112 113 114 115 116 117 118 119 120 121 122 123 124 125 126 127 128 129 130 131 132 
p 0.240000008 1 4.71238898038469 4.76147636559703 4.81056375080937 4.85965113602171 4.90873852123405 4.95782590644639 5.00691329165873 5.05600067687107 5.10508806208341 5.15417544729575 5.20326283250809 5.25235021772043 5.30143760293277 5.35052498814511 5.39961237335745 5.44869975856979 5.49778714378214 5.54687452899448 5.59596191420682 5.64504929941916 5.6941366846315 5.74322406984384 5.79231145505618 5.84139884026852 5.89048622548086 5.9395736106932 5.98866099590554 6.03774838111788 6.08683576633022 6.13592315154256 6.1850105367549 6.23409792196724 6.28318530717959 
2 1 34 
p 0.400000002 1 0 1 
2 1 4 
p 0.400000002 1 0 1 
33 35 36 37 38 39 40 41 42 43 44 45 46 47 48 49 50 51 52 53 54 55 56 57 58 59 60 61 62 63 64 65 66 34 
p 0.160000008 1 3.14159265358979 3.19068003880213 3.23976742401447 3.28885480922681 3.33794219443915 3.38702957965149 3.43611696486384 3.48520435007618 3.53429173528852 3.58337912050086 3.6324665057132 3.68155389092554 3.73064127613788 3.77972866135022 3.82881604656256 3.8779034317749 3.92699081698724 3.97607820219958 4.02516558741192 4.07425297262426 4.1233403578366 4.17242774304894 4.22151512826128 4.27060251347362 4.31968989868596 4.3687772838983 4.41786466911064 4.46695205432298 4.51603943953532 4.56512682474766 4.61421420996 4.66330159517234 4.71238898038469 
33 1 3 4 5 6 7 8 9 10 11 12 13 14 15 16 17 18 19 20 21 22 23 24 25 26 27 28 29 30 31 32 33 34 
p 0.160000008 1 3.14159265358979 3.19068003880213 3.23976742401447 3.28885480922681 3.33794219443915 3.38702957965149 3.43611696486384 3.48520435007618 3.53429173528852 3.58337912050086 3.6324665057132 3.68155389092554 3.73064127613788 3.77972866135022 3.82881604656256 3.8779034317749 3.92699081698724 3.97607820219958 4.02516558741192 4.07425297262426 4.1233403578366 4.17242774304894 4.22151512826128 4.27060251347362 4.31968989868596 4.3687772838983 4.41786466911064 4.46695205432298 4.51603943953532 4.56512682474766 4.61421420996 4.66330159517234 4.71238898038469 
2 1 2 
p 0.400000002 1 -14 14 
2 100 99 
p 0.400000002 1 -14 14 
2 2 3 
p 0.400000002 1 0 1 
2 33 35 
p 0.400000002 1 0 1 
2 4 3 
p 0.400000002 1 -6.00000000000002 5.99999996396757 
2 34 35 
p 0.400000002 1 -6.00000000000002 5.99999996396757 
33 1 2 3 4 5 6 7 8 9 10 11 12 13 14 15 16 17 18 19 20 21 22 23 24 25 26 27 28 29 30 31 32 33 
p 0.240000008 1 3.14159265358979 3.19068003880213 3.23976742401447 3.28885480922681 3.33794219443915 3.38702957965149 3.43611696486384 3.48520435007618 3.53429173528852 3.58337912050086 3.6324665057132 3.68155389092554 3.73064127613788 3.77972866135022 3.82881604656256 3.8779034317749 3.92699081698724 3.97607820219958 4.02516558741192 4.07425297262426 4.1233403578366 4.17242774304894 4.22151512826128 4.27060251347362 4.31968989868596 4.3687772838983 4.41786466911064 4.46695205432298 4.51603943953532 4.56512682474766 4.61421420996 4.66330159517234 4.71238898038469 
33 67 68 69 70 71 72 73 74 75 76 77 78 79 80 81 82 83 84 85 86 87 88 89 90 91 92 93 94 95 96 97 98 99 
p 0.240000008 1 3.14159265358979 3.19068003880213 3.23976742401447 3.28885480922681 3.33794219443915 3.38702957965149 3.43611696486384 3.48520435007618 3.53429173528852 3.58337912050086 3.6324665057132 3.68155389092554 3.73064127613788 3.77972866135022 3.82881604656256 3.8779034317749 3.92699081698724 3.97607820219958 4.02516558741192 4.07425297262426 4.1233403578366 4.17242774304894 4.22151512826128 4.27060251347362 4.31968989868596 4.3687772838983 4.41786466911064 4.46695205432298 4.51603943953532 4.56512682474766 4.61421420996 4.66330159517234 4.71238898038469 
2 1 34 
p 0.400000002 1 0 1 
2 1 4 
p 0.400000002 1 0 1 
33 35 36 37 38 39 40 41 42 43 44 45 46 47 48 49 50 51 52 53 54 55 56 57 58 59 60 61 62 63 64 65 66 34 
p 0.160000008 1 4.71238898038469 4.76147636559703 4.81056375080937 4.85965113602171 4.90873852123405 4.95782590644639 5.00691329165873 5.05600067687107 5.10508806208341 5.15417544729575 5.20326283250809 5.25235021772043 5.30143760293277 5.35052498814511 5.39961237335745 5.44869975856979 5.49778714378214 5.54687452899448 5.59596191420682 5.64504929941916 5.6941366846315 5.74322406984384 5.79231145505618 5.84139884026852 5.89048622548086 5.9395736106932 5.98866099590554 6.03774838111788 6.08683576633022 6.13592315154256 6.1850105367549 6.23409792196724 6.28318530717959 
33 35 36 37 38 39 40 41 42 43 44 45 46 47 48 49 50 51 52 53 54 55 56 57 58 59 60 61 62 63 64 65 66 67 
p 0.160000008 1 4.71238898038469 4.76147636559703 4.81056375080937 4.85965113602171 4.90873852123405 4.95782590644639 5.00691329165873 5.05600067687107 5.10508806208341 5.15417544729575 5.20326283250809 5.25235021772043 5.30143760293277 5.35052498814511 5.39961237335745 5.44869975856979 5.49778714378214 5.54687452899448 5.59596191420682 5.64504929941916 5.6941366846315 5.74322406984384 5.79231145505618 5.84139884026852 5.89048622548086 5.9395736106932 5.98866099590554 6.03774838111788 6.08683576633022 6.13592315154256 6.1850105367549 6.23409792196724 6.28318530717959 
2 1 2 
p 0.400000002 1 -9.00000000000003 8.99999994595136 
2 67 66 
p 0.400000002 1 -9.00000000000003 8.99999994595136 
2 2 3 
p 0.400000002 1 0 1 
2 33 35 
p 0.400000002 1 0 1 
2 4 3 
p 0.400000002 1 -8 8 
2 67 68 
p 0.400000002 1 -8 8 
33 1 2 3 4 5 6 7 8 9 10 11 12 13 14 15 16 17 18 19 20 21 22 23 24 25 26 27 28 29 30 31 32 33 
p 0.240000008 1 1.5707963267949 1.61988371200724 1.66897109721958 1.71805848243192 1.76714586764426 1.8162332528566 1.86532063806894 1.91440802328128 1.96349540849362 2.01258279370596 2.0616701789183 2.11075756413064 2.15984494934298 2.20893233455532 2.25801971976766 2.30710710498 2.35619449019234 2.40528187540468 2.45436926061702 2.50345664582937 2.55254403104171 2.60163141625405 2.65071880146639 2.69980618667873 2.74889357189107 2.79798095710341 2.84706834231575 2.89615572752809 2.94524311274043 2.99433049795277 3.04341788316511 3.09250526837745 3.14159265358979 
33 34 35 36 37 38 39 40 41 42 43 44 45 46 47 48 49 50 51 52 53 54 55 56 57 58 59 60 61 62 63 64 65 66 
p 0.240000008 1 1.5707963267949 1.61988371200724 1.66897109721958 1.71805848243192 1.76714586764426 1.8162332528566 1.86532063806894 1.91440802328128 1.96349540849362 2.01258279370596 2.0616701789183 2.11075756413064 2.15984494934298 2.20893233455532 2.25801971976766 2.30710710498 2.35619449019234 2.40528187540468 2.45436926061702 2.50345664582937 2.55254403104171 2.60163141625405 2.65071880146639 2.69980618667873 2.74889357189107 2.79798095710341 2.84706834231575 2.89615572752809 2.94524311274043 2.99433049795277 3.04341788316511 3.09250526837745 3.14159265358979 
2 1 34 
p 0.400000002 1 0 1 
2 2 4 
p 0.400000002 1 0 1 
33 35 36 37 38 39 40 41 42 43 44 45 46 47 48 49 50 51 52 53 54 55 56 57 58 59 60 61 62 63 64 65 66 34 
p 0.160000008 1 0 0.0490873852123405 0.098174770424681 0.147262155637022 0.196349540849362 0.245436926061703 0.294524311274043 0.343611696486384 0.392699081698724 0.441786466911065 0.490873852123405 0.539961237335746 0.589048622548086 0.638136007760427 0.687223392972767 0.736310778185108 0.785398163397449 0.834485548609789 0.88357293382213 0.93266031903447 0.981747704246811 1.03083508945915 1.07992247467149 1.12900985988383 1.17809724509617 1.22718463030851 1.27627201552085 1.32535940073319 1.37444678594554 1.42353417115788 1.47262155637022 1.52170894158256 1.5707963267949 
33 68 69 70 71 72 73 74 75 76 77 78 79 80 81 82 83 84 85 86 87 88 89 90 91 92 93 94 95 96 97 98 99 100 
p 0.160000008 1 0 0.0490873852123405 0.098174770424681 0.147262155637022 0.196349540849362 0.245436926061703 0.294524311274043 0.343611696486384 0.392699081698724 0.441786466911065 0.490873852123405 0.539961237335746 0.589048622548086 0.638136007760427 0.687223392972767 0.736310778185108 0.785398163397449 0.834485548609789 0.88357293382213 0.93266031903447 0.981747704246811 1.03083508945915 1.07992247467149 1.12900985988383 1.17809724509617 1.22718463030851 1.27627201552085 1.32535940073319 1.37444678594554 1.42353417115788 1.47262155637022 1.52170894158256 1.5707963267949 
2 1 2 
p 0.400000002 1 -14 14 
2 33 34 
p 0.400000002 1 -14 14 
2 1 3 
p 0.400000002 1 0 1 
2 33 35 
p 0.400000002 1 0 1 
2 3 4 
p 0.400000002 1 -6 5.99999996396757 
2 101 100 
p 0.400000002 1 -6 5.99999996396757 
33 1 2 3 4 5 6 7 8 9 10 11 12 13 14 15 16 17 18 19 20 21 22 23 24 25 26 27 28 29 30 31 32 33 
p 0.240000008 1 0 0.0490873852123405 0.098174770424681 0.147262155637022 0.196349540849362 0.245436926061703 0.294524311274043 0.343611696486384 0.392699081698724 0.441786466911065 0.490873852123405 0.539961237335746 0.589048622548086 0.638136007760427 0.687223392972767 0.736310778185108 0.785398163397449 0.834485548609789 0.88357293382213 0.93266031903447 0.981747704246811 1.03083508945915 1.07992247467149 1.12900985988383 1.17809724509617 1.22718463030851 1.27627201552085 1.32535940073319 1.37444678594554 1.42353417115788 1.47262155637022 1.52170894158256 1.5707963267949 
33 1 2 3 4 5 6 7 8 9 10 11 12 13 14 15 16 17 18 19 20 21 22 23 24 25 26 27 28 29 30 31 32 33 
p 0.240000008 1 0 0.0490873852123405 0.098174770424681 0.147262155637022 0.196349540849362 0.245436926061703 0.294524311274043 0.343611696486384 0.392699081698724 0.441786466911065 0.490873852123405 0.539961237335746 0.589048622548086 0.638136007760427 0.687223392972767 0.736310778185108 0.785398163397449 0.834485548609789 0.88357293382213 0.93266031903447 0.981747704246811 1.03083508945915 1.07992247467149 1.12900985988383 1.17809724509617 1.22718463030851 1.27627201552085 1.32535940073319 1.37444678594554 1.42353417115788 1.47262155637022 1.52170894158256 1.5707963267949 
33 35 36 37 38 39 40 41 42 43 44 45 46 47 48 49 50 51 52 53 54 55 56 57 58 59 60 61 62 63 64 65 66 34 
p 0.160000008 1 1.5707963267949 1.61988371200724 1.66897109721958 1.71805848243192 1.76714586764426 1.8162332528566 1.86532063806894 1.91440802328128 1.96349540849362 2.01258279370596 2.0616701789183 2.11075756413064 2.15984494934298 2.20893233455532 2.25801971976766 2.30710710498 2.35619449019234 2.40528187540468 2.45436926061702 2.50345664582937 2.55254403104171 2.60163141625405 2.65071880146639 2.69980618667873 2.74889357189107 2.79798095710341 2.84706834231575 2.89615572752809 2.94524311274043 2.99433049795277 3.04341788316511 3.09250526837745 3.14159265358979 
33 101 102 103 104 105 106 107 108 109 110 111 112 113 114 115 116 117 118 119 120 121 122 123 124 125 126 127 128 129 130 131 132 2 
p 0.160000008 1 1.5707963267949 1.61988371200724 1.66897109721958 1.71805848243192 1.76714586764426 1.8162332528566 1.86532063806894 1.91440802328128 1.96349540849362 2.01258279370596 2.0616701789183 2.11075756413064 2.15984494934298 2.20893233455532 2.25801971976766 2.30710710498 2.35619449019234 2.40528187540468 2.45436926061702 2.50345664582937 2.55254403104171 2.60163141625405 2.65071880146639 2.69980618667873 2.74889357189107 2.79798095710341 2.84706834231575 2.89615572752809 2.94524311274043 2.99433049795277 3.04341788316511 3.09250526837745 3.14159265358979 
Surfaces 10
9 0 0 0 0 1 1 2 2 2 2 -20 8.9999999459513713 0  -9.9999999999999893 7.9999999342694705 25  
-20 -9.0000000000000142 0  -9.9999999999999893 -8 25  

-8.9999999459513571 2
9.0000000000000302 2

0 2
1 2

1 -14 -9.0000000000000142 0 0 0 -1 -1 0 0 0 1 0 
9 0 0 0 0 8 1 9 2 2 2 -20 -9.0000000000000124 0  -10.000000000000012 -8 25  
-20.000000000000032 -10.178097245096204 0  -9.9999999999998952 -8.7853981633972786 24.999999999999723  
-19.735635266232702 -11.356194861025243 0  -9.8237568441554934 -9.5707965740173915 25.000000000000806  
-19.206908395228719 -12.465079406010457 0  -9.471272263485341 -10.310052937339353 24.999999999998757  
-18.435552534679211 -13.435552534679355 0  -8.9570350231198965 -10.957035023120525 25.000000000001201  
-17.465079406010489 -14.206908395228554 0  -8.3100529373400622 -11.471272263485028 24.999999999999169  
-16.356194861025212 -14.73563526623283 0  -7.5707965740169803 -11.823756844155534 25.000000000000433  
-15.1780972450962 -15.000000000000011 0  -6.785398163397419 -11.999999999999902 24.999999999999854  
-14 -15.000000000000012 0  -6.0000000000000133 -12 25.000000000000004  

0 9
1.5707963267948966 9

0 2
1 2

1 -6.0000000000000107 -8 25 0 0 1 1 0 0 0 1 0 
9 0 0 0 0 8 1 9 2 2 2 -13.999999999999986 14.999999945951357 0  -5.9999999999999893 11.999999934269473 25  
-15.178097245095943 14.999999945951233 0  -6.7853981633974154 11.999999934269406 24.999999999999893  
-16.356194861026072 14.735635212184611 0  -7.5707965740169154 11.823756778424878 25.000000000000334  
-17.46507940600906 14.206908341179235 0  -8.3100529373401475 11.471272197754832 24.999999999999478  
-18.435552534680738 13.435552480631454 0  -8.9570350231196034 10.957034957389418 25.000000000000416  
-19.206908395227565 12.465079351961224 0  -9.47127226348573 10.310052871609461 24.999999999999872  
-19.735635266233277 11.356194806976912 0  -9.823756844155147 9.5707965082864455 24.999999999999961  
-19.999999999999865 10.178097191047485 0  -10.000000000000007 8.7853980976668957 25.000000000000036  
-20 8.9999999459513731 0  -9.9999999999999893 7.9999999342694732 25  

4.7123889803846897 9
6.2831853071795862 9

0 2
1 2

9 0 0 0 0 1 1 2 2 2 2 -14 -14.999999999999986 0  -6.0000000000000089 -12 25  
14 -14.999999999999986 0  5.9999999639675838 -12 25  

-14 2
14 2

0 2
1 2

9 0 0 0 0 8 1 9 2 2 2 14 -15.000000000000014 0  5.9999999639675794 -11.999999999999991 24.999999999999979  
15.178097245096033 -14.999999999999936 0  6.7853981273648998 -11.999999999999842 24.999999999999645  
16.356194861025756 -14.735635266233103 0  7.5707965379848972 -11.823756844155707 25.000000000001258  
17.465079406009561 -14.206908395228005 0  8.3100529013070421 -11.471272263484844 24.999999999997794  
18.435552534680188 -13.435552534680046 0  8.9570349870880452 -10.957035023120506 25.000000000002423  
19.206908395228066 -12.465079406009888 0  9.4712722274525909 -10.310052937339554 24.999999999998185  
19.735635266232951 -11.356194861025537 0  9.8237568081231768 -9.5707965740172085 25.000000000000906  
19.999999999999979 -10.178097245096131 0  9.9999999639674613 -8.7853981633973479 24.999999999999755  
20 -9.0000000000000142 0  9.9999999639675838 -8.0000000000000018 25  

1.5707963267948966 9
3.1415926535897931 9

0 2
1 2

9 0 0 0 0 1 1 2 2 2 2 20 -9.0000000000000142 0  10.000000000000011 -8 25  
20 8.9999999459513713 0  10.000000000000011 8 25  

-9.0000000000000284 2
8.9999999459513589 2

0 2
1 2

9 0 0 0 0 8 1 9 2 2 2 20 8.9999999459513731 0  9.9999999639675856 8 25  
19.999999999999755 10.17809719104736 0  9.9999999639675714 8.7853981633974492 25  
19.735635266233544 11.356194806977232 0  9.8237568081227877 9.5707965740168319 25.000000000000004  
19.206908395227391 12.46507935196083 0  9.471272227453321 10.310052937340298 24.999999999999972  
18.435552534680522 13.435552480631628 0  8.957034987087102 10.957035023119507 25.000000000000071  
17.465079406009593 14.206908341179386 0  8.3100529013078948 11.471272263485769 24.999999999999918  
16.356194861025649 14.735635212184388 0  7.570796537984414 11.823756844155163 25.000000000000064  
15.178097245096081 14.999999945951322 0  6.7853981273650374 12.000000000000007 24.999999999999975  
14.000000000000004 14.999999945951373 0  5.9999999639675856 12 25  

3.1415926535897931 9
4.7123889803846897 9

0 2
1 2

9 0 0 0 0 1 1 2 2 2 2 14 15.000000000000014 0  5.9999999639675856 12 25  
-14 15.000000000000014 0  -5.9999999999999893 12 25  

-14 2
14 2

0 2
1 2

Triangulations 10
5 4 1 0 0.12500000073012
-20 -9.00000000000001 0 -20 8.99999994595137 0 -10 -8 25 -9.99999999999999 7.99999993426947 25 -15 -2.99447924234642e-08 12.5 9.00000000000003 0 -8.99999994595136 0 9.00000000000003 1 -8.99999994595136 1 2.7024336546333e-08 0.5 5 2 1 5 1 3 5 3 4 5 4 2 
132 130 1 0 1.35121673849881e-08
-20 8.99999994595137 0 -19.992772737231 9.29440599191588 0 -19.9711083600332 9.58810278792874 0 -19.9350590597887 9.88038279268354 0 -19.8847116824194 10.1705418780481 0 -19.8201875191673 10.457881025371 0 -19.7416420143933 10.7417080094781 0 -19.6492643910981 11.0213390663047 0 -19.5432771950677 11.2961005401419 0 -19.4239357587407 11.5653305065331 0 -19.2915275860901 11.8283803669074 0 -19.1463716600016 12.0846164111107 0 -18.9888176738153 12.333421344069 0 -18.8192451888839 12.574195772906 0 -18.6380627201764 12.8063596509332 0 -18.4457067521298 13.0293536750335 0 -18.2426406871193 13.2426406330707 0 -18.0293537290821 13.4457066980811 0 -17.8063597049819 13.6380626661278 0 -17.5741958269546 13.8192451348352 0 -17.3334213981176 13.9888176197666 0 -17.0846164651593 14.146371605953 0 -16.828380420956 14.2915275320415 0 -16.5653305605817 14.423935704692 0 -16.2961005941905 14.5432771410191 0 -16.0213391203533 14.6492643370495 0 -15.7417080635268 14.7416419603446 0 -15.4578810794196 14.8201874651186 0 -15.1705419320968 14.8847116283708 0 -14.8803828467322 14.9350590057401 0 -14.5881028419774 14.9711083059846 0 -14.2944060459645 14.9927726831824 0 -14 14.9999999729757 0 14 14.9999999729757 0 14.2944060459645 14.9927726831824 0 14.5881028419774 14.9711083059846 0 14.8803828467322 14.9350590057401 0 15.1705419320968 14.8847116283708 0 15.4578810794196 14.8201874651186 0 15.7417080635268 14.7416419603446 0 16.0213391203533 14.6492643370495 0 16.2961005941905 14.5432771410191 0 16.5653305605817 14.423935704692 0 16.828380420956 14.2915275320415 0 17.0846164651593 14.146371605953 0 17.3334213981176 13.9888176197666 0 17.5741958269546 13.8192451348352 0 17.8063597049819 13.6380626661278 0 18.0293537290821 13.4457066980811 0 18.2426406871193 13.2426406330707 0 18.4457067521298 13.0293536750335 0 18.6380627201764 12.8063596509333 0 18.8192451888839 12.574195772906 0 18.9888176738153 12.333421344069 0 19.1463716600016 12.0846164111107 0 19.2915275860901 11.8283803669074 0 19.4239357587407 11.5653305065331 0 19.5432771950677 11.2961005401419 0 19.6492643910981 11.0213390663047 0 19.7416420143932 10.7417080094782 0 19.8201875191673 10.457881025371 0 19.8847116824194 10.1705418780482 0 19.9350590597887 9.88038279268356 0 19.9711083600332 9.58810278792876 0 19.992772737231 9.2944059919159 0 20 8.99999994595137 0 20 -9.00000000000001 0 19.992772737231 -9.29440604596452 0 19.9711083600332 -9.58810284197737 0 19.9350590597887 -9.88038284673218 0 19.8847116824194 -10.1705419320968 0 19.8201875191673 -10.4578810794196 0 19.7416420143933 -10.7417080635268 0 19.6492643910981 -11.0213391203533 0 19.5432771950677 -11.2961005941905 0 19.4239357587407 -11.5653305605817 0 19.2915275860901 -11.828380420956 0 19.1463716600016 -12.0846164651593 0 18.9888176738153 -12.3334213981176 0 18.8192451888839 -12.5741958269546 0 18.6380627201764 -12.8063597049819 0 18.4457067521298 -13.0293537290821 0 18.2426406871193 -13.2426406871193 0 18.0293537290821 -13.4457067521298 0 17.8063597049819 -13.6380627201764 0 17.5741958269546 -13.8192451888839 0 17.3334213981176 -13.9888176738153 0 17.0846164651593 -14.1463716600016 0 16.828380420956 -14.2915275860901 0 16.5653305605817 -14.4239357587407 0 16.2961005941906 -14.5432771950677 0 16.0213391203533 -14.6492643910981 0 15.7417080635268 -14.7416420143933 0 15.4578810794196 -14.8201875191673 0 15.1705419320968 -14.8847116824194 0 14.8803828467322 -14.9350590597887 0 14.5881028419774 -14.9711083600332 0 14.2944060459645 -14.992772737231 0 14 -15 0 -14 -15 0 -14.2944060459645 -14.992772737231 0 -14.5881028419774 -14.9711083600332 0 -14.8803828467322 -14.9350590597887 0 -15.1705419320968 -14.8847116824194 0 -15.4578810794196 -14.8201875191673 0 -15.7417080635268 -14.7416420143933 0 -16.0213391203533 -14.6492643910981 0 -16.2961005941905 -14.5432771950677 0 -16.5653305605817 -14.4239357587407 0 -16.828380420956 -14.2915275860902 0 -17.0846164651593 -14.1463716600017 0 -17.3334213981176 -13.9888176738153 0 -17.5741958269546 -13.8192451888839 0 -17.8063597049819 -13.6380627201764 0 -18.0293537290821 -13.4457067521298 0 -18.2426406871193 -13.2426406871193 0 -18.4457067521297 -13.0293537290821 0 -18.6380627201764 -12.8063597049819 0 -18.8192451888839 -12.5741958269546 0 -18.9888176738153 -12.3334213981176 0 -19.1463716600016 -12.0846164651594 0 -19.2915275860901 -11.828380420956 0 -19.4239357587406 -11.5653305605817 0 -19.5432771950677 -11.2961005941906 0 -19.6492643910981 -11.0213391203534 0 -19.7416420143932 -10.7417080635268 0 -19.8201875191673 -10.4578810794196 0 -19.8847116824194 -10.1705419320968 0 -19.9350590597887 -9.88038284673221 0 -19.9711083600332 -9.58810284197741 0 -19.992772737231 -9.29440604596456 0 -20 -9.00000000000001 0 6 17.9999999459514 5.99277273723104 18.2944059919159 5.97110836003318 18.5881027879288 5.93505905978868 18.8803827926836 5.88471168241938 19.1705418780482 5.82018751916726 19.457881025371 5.74164201439325 19.7417080094782 5.64926439109813 20.0213390663047 5.54327719506772 20.2961005401419 5.42393575874066 20.5653305065331 5.29152758609013 20.8283803669074 5.14637166000163 21.0846164111107 4.98881767381527 21.333421344069 4.81924518888387 21.574195772906 4.63806272017642 21.8063596509333 4.44570675212975 22.0293536750335 4.24264068711928 22.2426406330707 4.02935372908211 22.4457066980811 3.80635970498187 22.6380626661278 3.5741958269546 22.8192451348353 3.33342139811761 22.9888176197667 3.08461646515933 23.146371605953 2.82838042095598 23.2915275320415 2.56533056058169 23.423935704692 2.29610059419053 23.5432771410191 2.02133912035332 23.6492643370495 1.74170806352677 23.7416419603446 1.45788107941958 23.8201874651187 1.17054193209677 23.8847116283708 0.880382846732168 23.9350590057401 0.58810284197736 23.9711083059846 0.2944060459645 23.9927726831824 0 24 -28 23.9999999459514 -28.2944060459645 23.9927726831824 -28.5881028419774 23.9711083059846 -28.8803828467322 23.9350590057401 -29.1705419320968 23.8847116283708 -29.4578810794196 23.8201874651187 -29.7417080635268 23.7416419603446 -30.0213391203533 23.6492643370495 -30.2961005941905 23.5432771410191 -30.5653305605817 23.423935704692 -30.828380420956 23.2915275320415 -31.0846164651593 23.146371605953 -31.3334213981176 22.9888176197667 -31.5741958269546 22.8192451348353 -31.8063597049819 22.6380626661278 -32.0293537290821 22.4457066980811 -32.2426406871193 22.2426406330707 -32.4457067521298 22.0293536750335 -32.6380627201764 21.8063596509333 -32.8192451888839 21.574195772906 -32.9888176738153 21.333421344069 -33.1463716600016 21.0846164111107 -33.2915275860901 20.8283803669074 -33.4239357587407 20.5653305065331 -33.5432771950677 20.2961005401419 -33.6492643910981 20.0213390663047 -33.7416420143932 19.7417080094782 -33.8201875191673 19.457881025371 -33.8847116824194 19.1705418780482 -33.9350590597887 18.8803827926836 -33.9711083600332 18.5881027879288 -33.992772737231 18.2944059919159 -34 17.9999999459514 -34 8.88178419700125e-16 -33.992772737231 -0.294406045964506 -33.9711083600332 -0.588102841977361 -33.9350590597887 -0.880382846732167 -33.8847116824194 -1.17054193209677 -33.8201875191673 -1.45788107941958 -33.7416420143933 -1.74170806352677 -33.6492643910981 -2.02133912035331 -33.5432771950677 -2.29610059419053 -33.4239357587407 -2.56533056058168 -33.2915275860901 -2.82838042095598 -33.1463716600016 -3.08461646515932 -32.9888176738153 -3.3334213981176 -32.8192451888839 -3.57419582695459 -32.6380627201764 -3.80635970498186 -32.4457067521298 -4.0293537290821 -32.2426406871193 -4.24264068711927 -32.0293537290821 -4.44570675212974 -31.8063597049819 -4.63806272017641 -31.5741958269546 -4.81924518888386 -31.3334213981176 -4.98881767381526 -31.0846164651593 -5.14637166000162 -30.828380420956 -5.29152758609012 -30.5653305605817 -5.42393575874065 -30.2961005941906 -5.54327719506771 -30.0213391203533 -5.64926439109812 -29.7417080635268 -5.74164201439325 -29.4578810794196 -5.82018751916726 -29.1705419320968 -5.88471168241938 -28.8803828467322 -5.93505905978868 -28.5881028419774 -5.97110836003318 -28.2944060459645 -5.99277273723103 -28 -5.99999999999997 0 -6 0.294406045964507 -5.99277273723103 0.58810284197736 -5.97110836003318 0.880382846732168 -5.93505905978869 1.17054193209677 -5.88471168241938 1.45788107941958 -5.82018751916727 1.74170806352677 -5.74164201439326 2.02133912035331 -5.64926439109813 2.29610059419053 -5.54327719506772 2.56533056058169 -5.42393575874066 2.82838042095597 -5.29152758609014 3.08461646515932 -5.14637166000164 3.3334213981176 -4.98881767381528 3.57419582695459 -4.81924518888388 3.80635970498186 -4.63806272017643 4.0293537290821 -4.44570675212977 4.24264068711928 -4.2426406871193 4.44570675212974 -4.02935372908212 4.63806272017641 -3.80635970498189 4.81924518888385 -3.57419582695462 4.98881767381526 -3.33342139811763 5.14637166000162 -3.08461646515935 5.29152758609012 -2.82838042095601 5.42393575874065 -2.56533056058171 5.54327719506771 -2.29610059419056 5.64926439109811 -2.02133912035335 5.74164201439324 -1.7417080635268 5.82018751916726 -1.45788107941961 5.88471168241938 -1.1705419320968 5.93505905978868 -0.880382846732201 5.97110836003318 -0.588102841977395 5.99277273723104 -0.29440604596454 6 0 81 82 83 81 83 84 81 84 85 89 87 88 77 78 79 76 77 79 76 79 80 76 80 81 72 73 74 72 74 75 72 75 76 70 71 72 68 69 70 67 70 72 67 68 70 99 81 85 99 76 81 99 87 89 99 72 76 99 85 86 99 86 87 99 89 90 99 90 91 99 91 92 99 92 93 99 93 94 99 94 95 99 95 96 99 96 97 99 97 98 99 67 72 66 67 99 64 65 66 62 63 64 59 62 64 59 60 61 59 61 62 58 59 64 56 57 58 55 56 58 54 64 66 54 58 64 54 55 58 52 54 66 52 53 54 49 50 51 48 49 51 46 48 51 46 47 48 46 51 52 45 46 52 44 45 52 44 52 66 43 44 66 41 42 43 41 43 66 39 40 41 39 41 66 102 100 101 37 38 39 104 102 103 105 102 104 35 36 37 35 37 39 34 66 99 34 39 66 34 35 39 34 99 100 106 100 102 106 102 105 107 100 106 109 107 108 110 107 109 112 110 111 112 107 110 113 100 107 113 107 112 115 113 114 115 100 113 116 100 115 117 100 116 120 117 118 120 118 119 121 117 120 123 117 121 123 121 122 124 117 123 125 100 117 125 117 124 128 125 126 128 126 127 129 125 128 130 125 129 132 100 125 132 125 130 132 130 131 1 100 132 33 100 1 33 34 100 32 33 1 4 1 2 4 2 3 5 1 4 6 1 5 28 29 30 28 30 31 28 31 32 7 1 6 8 1 7 26 27 28 9 32 1 9 1 8 24 25 26 24 26 28 23 24 28 11 9 10 22 23 28 12 9 11 20 21 22 20 22 28 14 12 13 14 28 32 14 32 9 14 9 12 19 20 28 17 14 15 17 15 16 17 18 19 17 28 14 17 19 28 
66 64 1 0 0.0245874003024591
-14 -15 0 -14.2944060459645 -14.992772737231 0 -14.5881028419774 -14.9711083600332 0 -14.8803828467322 -14.9350590597887 0 -15.1705419320968 -14.8847116824194 0 -15.4578810794196 -14.8201875191673 0 -15.7417080635268 -14.7416420143933 0 -16.0213391203533 -14.6492643910981 0 -16.2961005941905 -14.5432771950677 0 -16.5653305605817 -14.4239357587407 0 -16.828380420956 -14.2915275860902 0 -17.0846164651593 -14.1463716600017 0 -17.3334213981176 -13.9888176738153 0 -17.5741958269546 -13.8192451888839 0 -17.8063597049819 -13.6380627201764 0 -18.0293537290821 -13.4457067521298 0 -18.2426406871193 -13.2426406871193 0 -18.4457067521297 -13.0293537290821 0 -18.6380627201764 -12.8063597049819 0 -18.8192451888839 -12.5741958269546 0 -18.9888176738153 -12.3334213981176 0 -19.1463716600016 -12.0846164651594 0 -19.2915275860901 -11.828380420956 0 -19.4239357587406 -11.5653305605817 0 -19.5432771950677 -11.2961005941906 0 -19.6492643910981 -11.0213391203534 0 -19.7416420143932 -10.7417080635268 0 -19.8201875191673 -10.4578810794196 0 -19.8847116824194 -10.1705419320968 0 -19.9350590597887 -9.88038284673221 0 -19.9711083600332 -9.58810284197741 0 -19.992772737231 -9.29440604596456 0 -20 -9.00000000000001 0 -6.00000000000001 -12 25 -10 -8 25 -9.9951818248207 -8.19627069730967 25 -9.9807389066888 -8.39206856131824 25 -9.95670603985914 -8.58692189782144 25 -9.92314112161293 -8.78036128806451 25 -9.88012501277819 -8.97192071961305 25 -9.82776134292885 -9.16113870901784 25 -9.7661762607321 -9.34755941356888 25 -9.69551813004516 -9.53073372946035 25 -9.61595717249379 -9.71022037372112 25 -9.52768505739343 -9.88558694730398 25 -9.4309144400011 -10.0564109767729 25 -9.3258784492102 -10.2222809320784 25 -9.2128301259226 -10.3827972179697 25 -9.09204181345097 -10.5375731366546 25 -8.96380450141985 -10.6862358193881 25 -8.82842712474621 -10.8284271247462 25 -8.68623581938809 -10.9638045014198 25 -8.5375731366546 -11.0920418134509 25 -8.38279721796975 -11.2128301259226 25 -8.22228093207843 -11.3258784492102 25 -8.05641097677291 -11.4309144400011 25 -7.88558694730401 -11.5276850573934 25 -7.71022037372115 -11.6159571724938 25 -7.53073372946039 -11.6955181300451 25 -7.34755941356891 -11.7661762607321 25 -7.16113870901788 -11.8277613429288 25 -6.97192071961308 -11.8801250127782 25 -6.78036128806454 -11.9231411216129 25 -6.58692189782148 -11.9567060398591 25 -6.39206856131827 -11.9807389066888 25 -6.1962706973097 -11.9951818248207 25 1.5707963267949 0 1.52170894158256 0 1.47262155637022 0 1.42353417115788 0 1.37444678594554 0 1.32535940073319 0 1.27627201552085 0 1.22718463030851 0 1.17809724509617 0 1.12900985988383 0 1.07992247467149 0 1.03083508945915 0 0.981747704246812 0 0.932660319034472 0 0.883572933822132 0 0.834485548609791 0 0.785398163397451 0 0.736310778185111 0 0.68722339297277 0 0.63813600776043 0 0.58904862254809 0 0.539961237335749 0 0.490873852123409 0 0.441786466911069 0 0.392699081698728 0 0.343611696486388 0 0.294524311274047 0 0.245436926061707 0 0.196349540849367 0 0.147262155637026 0 0.098174770424686 0 0.0490873852123457 0 0 0 1.5707963267949 1 0 1 0.0490873852123404 1 0.0981747704246807 1 0.147262155637021 1 0.196349540849361 1 0.245436926061702 1 0.294524311274042 1 0.343611696486382 1 0.392699081698723 1 0.441786466911063 1 0.490873852123404 1 0.539961237335744 1 0.589048622548084 1 0.638136007760425 1 0.687223392972765 1 0.736310778185105 1 0.785398163397446 1 0.834485548609786 1 0.883572933822126 1 0.932660319034467 1 0.981747704246807 1 1.03083508945915 1 1.07992247467149 1 1.12900985988383 1 1.17809724509617 1 1.22718463030851 1 1.27627201552085 1 1.32535940073319 1 1.37444678594553 1 1.42353417115787 1 1.47262155637021 1 1.52170894158255 1 36 33 32 36 35 33 37 36 32 37 32 31 38 37 31 38 31 30 39 38 30 39 30 29 40 39 29 40 29 28 41 40 28 41 28 27 42 41 27 42 27 26 43 42 26 43 26 25 44 43 25 44 25 24 45 44 24 45 24 23 46 45 23 46 23 22 47 46 22 47 22 21 48 47 21 48 21 20 49 20 19 49 48 20 50 19 18 50 49 19 51 18 17 51 50 18 52 17 16 52 51 17 53 16 15 53 52 16 54 15 14 54 53 15 55 14 13 55 54 14 56 13 12 56 55 13 57 12 11 57 56 12 58 11 10 58 57 11 59 10 9 59 58 10 60 9 8 60 59 9 61 8 7 61 60 8 62 7 6 62 61 7 63 6 5 63 62 6 64 5 4 64 63 5 65 4 3 65 64 4 66 3 2 66 65 3 34 2 1 34 66 2 
132 130 1 0 1.87397280336488e-08
-10 -8 25 -9.99999999999999 7.99999993426947 25 -9.9951818248207 -8.19627069730967 25 -9.9807389066888 -8.39206856131824 25 -9.95670603985914 -8.58692189782144 25 -9.92314112161293 -8.78036128806451 25 -9.88012501277819 -8.97192071961305 25 -9.82776134292885 -9.16113870901784 25 -9.7661762607321 -9.34755941356888 25 -9.69551813004516 -9.53073372946035 25 -9.61595717249379 -9.71022037372112 25 -9.52768505739343 -9.88558694730398 25 -9.4309144400011 -10.0564109767729 25 -9.3258784492102 -10.2222809320784 25 -9.2128301259226 -10.3827972179697 25 -9.09204181345097 -10.5375731366546 25 -8.96380450141985 -10.6862358193881 25 -8.82842712474621 -10.8284271247462 25 -8.68623581938809 -10.9638045014198 25 -8.5375731366546 -11.0920418134509 25 -8.38279721796975 -11.2128301259226 25 -8.22228093207843 -11.3258784492102 25 -8.05641097677291 -11.4309144400011 25 -7.88558694730401 -11.5276850573934 25 -7.71022037372115 -11.6159571724938 25 -7.53073372946039 -11.6955181300451 25 -7.34755941356891 -11.7661762607321 25 -7.16113870901788 -11.8277613429288 25 -6.97192071961308 -11.8801250127782 25 -6.78036128806454 -11.9231411216129 25 -6.58692189782148 -11.9567060398591 25 -6.39206856131827 -11.9807389066888 25 -6.1962706973097 -11.9951818248207 25 -6.00000000000001 -12 25 5.99999996396758 -12 25 6.19627066127725 -11.9951818248207 25 6.39206852528582 -11.9807389066888 25 6.58692186178903 -11.9567060398591 25 6.78036125203209 -11.9231411216129 25 6.97192068358064 -11.8801250127782 25 7.16113867298543 -11.8277613429288 25 7.34755937753646 -11.7661762607321 25 7.53073369342794 -11.6955181300451 25 7.71022033768871 -11.6159571724938 25 7.88558691127157 -11.5276850573934 25 8.05641094074046 -11.4309144400011 25 8.22228089604599 -11.3258784492102 25 8.38279718193731 -11.2128301259226 25 8.53757310062216 -11.092041813451 25 8.68623578335565 -10.9638045014198 25 8.82842708871377 -10.8284271247462 25 8.96380446538741 -10.6862358193881 25 9.09204177741852 -10.5375731366546 25 9.21283008989015 -10.3827972179697 25 9.32587841317776 -10.2222809320784 25 9.43091440396866 -10.0564109767729 25 9.527685021361 -9.885586947304 25 9.61595713646135 -9.71022037372114 25 9.69551809401272 -9.53073372946037 25 9.76617622469966 -9.3475594135689 25 9.82776130689641 -9.16113870901787 25 9.88012497674575 -8.97192071961307 25 9.9231410855805 -8.78036128806453 25 9.9567060038267 -8.58692189782147 25 9.98073887065637 -8.39206856131826 25 9.99518178878827 -8.19627069730969 25 9.9999999819838 -8 25 9.9999999819838 8 25 9.99518178878828 8.19627069730967 25 9.98073887065637 8.39206856131824 25 9.95670600382671 8.58692189782145 25 9.92314108558051 8.78036128806451 25 9.88012497674576 8.97192071961306 25 9.82776130689642 9.16113870901785 25 9.76617622469967 9.34755941356888 25 9.69551809401273 9.53073372946036 25 9.61595713646136 9.71022037372113 25 9.52768502136101 9.88558694730399 25 9.43091440396867 10.0564109767729 25 9.32587841317777 10.2222809320784 25 9.21283008989016 10.3827972179697 25 9.09204177741853 10.5375731366546 25 8.96380446538742 10.6862358193881 25 8.82842708871378 10.8284271247462 25 8.68623578335566 10.9638045014198 25 8.53757310062217 11.0920418134509 25 8.38279718193732 11.2128301259226 25 8.22228089604599 11.3258784492102 25 8.05641094074047 11.4309144400011 25 7.88558691127157 11.5276850573934 25 7.71022033768871 11.6159571724938 25 7.53073369342794 11.6955181300451 25 7.34755937753646 11.7661762607321 25 7.16113867298543 11.8277613429288 25 6.97192068358064 11.8801250127782 25 6.7803612520321 11.9231411216129 25 6.58692186178903 11.9567060398591 25 6.39206852528582 11.9807389066888 25 6.19627066127725 11.9951818248207 25 5.99999996396759 12 25 -5.99999999999999 11.9999999671347 25 -6.19627069730966 11.9951817590902 25 -6.39206856131823 11.9807388409583 25 -6.58692189782144 11.9567059741286 25 -6.7803612880645 11.9231410558824 25 -6.97192071961305 11.8801249470476 25 -7.16113870901784 11.8277612771983 25 -7.34755941356887 11.7661761950016 25 -7.53073372946035 11.6955180643146 25 -7.71022037372112 11.6159571067632 25 -7.88558694730398 11.5276849916629 25 -8.05641097677288 11.4309143742706 25 -8.2222809320784 11.3258783834797 25 -8.38279721796972 11.2128300601921 25 -8.53757313665457 11.0920417477204 25 -8.68623581938806 10.9638044356893 25 -8.82842712474618 10.8284270590157 25 -8.96380450141982 10.6862357536575 25 -9.09204181345093 10.5375730709241 25 -9.21283012592257 10.3827971522392 25 -9.32587844921017 10.2222808663479 25 -9.43091444000107 10.0564109110424 25 -9.52768505739341 9.88558688157347 25 -9.61595717249376 9.71022030799061 25 -9.69551813004513 9.53073366372984 25 -9.76617626073207 9.34755934783836 25 -9.82776134292882 9.16113864328733 25 -9.88012501277816 8.97192065388254 25 -9.92314112161291 8.780361222334 25 -9.95670603985911 8.58692183209093 25 -9.98073890668878 8.39206849558773 25 -9.99518182482068 8.19627063157916 25 -4 8.88178419700125e-16 -3.99999999999998 15.9999999342695 -3.99518182482069 -0.196270697309671 -3.98073890668879 -0.39206856131824 -3.95670603985912 -0.586921897821445 -3.92314112161292 -0.78036128806451 -3.88012501277818 -0.971920719613052 -3.82776134292884 -1.16113870901785 -3.76617626073209 -1.34755941356888 -3.69551813004515 -1.53073372946035 -3.61595717249378 -1.71022037372112 -3.52768505739342 -1.88558694730398 -3.43091444000109 -2.05641097677288 -3.32587844921019 -2.2222809320784 -3.21283012592259 -2.38279721796973 -3.09204181345095 -2.53757313665457 -2.96380450141984 -2.68623581938807 -2.8284271247462 -2.82842712474618 -2.68623581938808 -2.96380450141983 -2.53757313665459 -3.09204181345094 -2.38279721796974 -3.21283012592257 -2.22228093207842 -3.32587844921017 -2.0564109767729 -3.43091444000108 -1.885586947304 -3.52768505739341 -1.71022037372114 -3.61595717249377 -1.53073372946037 -3.69551813004514 -1.3475594135689 -3.76617626073208 -1.16113870901787 -3.82776134292883 -0.971920719613074 -3.88012501277817 -0.780361288064532 -3.92314112161292 -0.586921897821467 -3.95670603985912 -0.392068561318263 -3.98073890668879 -0.196270697309693 -3.99518182482069 1.77635683940025e-15 -4 11.9999999639676 -4 12.1962706612773 -3.99518182482069 12.3920685252858 -3.98073890668879 12.586921861789 -3.95670603985912 12.7803612520321 -3.92314112161292 12.9719206835806 -3.88012501277818 13.1611386729854 -3.82776134292884 13.3475593775365 -3.76617626073209 13.5307336934279 -3.69551813004515 13.7102203376887 -3.61595717249378 13.8855869112716 -3.52768505739342 14.0564109407405 -3.43091444000109 14.222280896046 -3.32587844921019 14.3827971819373 -3.21283012592259 14.5375731006222 -3.09204181345095 14.6862357833557 -2.96380450141984 14.8284270887138 -2.8284271247462 14.9638044653874 -2.68623581938808 15.0920417774185 -2.53757313665459 15.2128300898902 -2.38279721796974 15.3258784131778 -2.22228093207842 15.4309144039687 -2.0564109767729 15.527685021361 -1.885586947304 15.6159571364614 -1.71022037372114 15.6955180940127 -1.53073372946037 15.7661762246997 -1.3475594135689 15.8277613068964 -1.16113870901787 15.8801249767458 -0.971920719613074 15.9231410855805 -0.780361288064532 15.9567060038267 -0.586921897821467 15.9807388706564 -0.392068561318263 15.9951817887883 -0.196270697309694 16 0 15.9999999639676 16 15.9951817887883 16.1962706973097 15.9807388706564 16.3920685613182 15.9567060038267 16.5869218978214 15.9231410855805 16.7803612880645 15.8801249767458 16.9719207196131 15.8277613068964 17.1611387090178 15.7661762246997 17.3475594135689 15.6955180940127 17.5307337294604 15.6159571364614 17.7102203737211 15.527685021361 17.885586947304 15.4309144039687 18.0564109767729 15.3258784131778 18.2222809320784 15.2128300898902 18.3827972179697 15.0920417774185 18.5375731366546 14.9638044653874 18.6862358193881 14.8284270887138 18.8284271247462 14.6862357833557 18.9638045014198 14.5375731006222 19.0920418134509 14.3827971819373 19.2128301259226 14.222280896046 19.3258784492102 14.0564109407405 19.4309144400011 13.8855869112716 19.5276850573934 13.7102203376887 19.6159571724938 13.530733693428 19.6955181300451 13.3475593775365 19.7661762607321 13.1611386729854 19.8277613429288 12.9719206835806 19.8801250127782 12.7803612520321 19.9231411216129 12.586921861789 19.9567060398591 12.3920685252858 19.9807389066888 12.1962706612773 19.9951818248207 11.9999999639676 20 2.1316282072803e-14 19.9999999342695 -0.196270697309651 19.9951817590902 -0.392068561318221 19.9807388409583 -0.586921897821426 19.9567059741286 -0.780361288064492 19.9231410558824 -0.971920719613035 19.8801249470476 -1.16113870901783 19.8277612771983 -1.34755941356886 19.7661761950016 -1.53073372946034 19.6955180643146 -1.71022037372111 19.6159571067632 -1.88558694730397 19.5276849916629 -2.05641097677286 19.4309143742706 -2.22228093207839 19.3258783834797 -2.38279721796971 19.2128300601921 -2.53757313665456 19.0920417477204 -2.68623581938805 18.9638044356893 -2.82842712474617 18.8284270590157 -2.96380450141981 18.6862357536575 -3.09204181345092 18.5375730709241 -3.21283012592255 18.3827971522392 -3.32587844921016 18.2222808663479 -3.43091444000106 18.0564109110424 -3.52768505739339 17.8855868815735 -3.61595717249375 17.7102203079906 -3.69551813004512 17.5307336637298 -3.76617626073206 17.3475593478384 -3.82776134292881 17.1611386432873 -3.88012501277815 16.9719206538825 -3.9231411216129 16.780361222334 -3.9567060398591 16.5869218320909 -3.98073890668877 16.3920684955877 -3.99518182482067 16.1962706315792 15 16 17 12 13 14 12 14 15 26 19 20 26 20 21 26 21 22 26 22 23 26 23 24 26 24 25 28 26 27 8 9 10 8 10 11 7 8 11 30 28 29 30 26 28 31 17 18 31 18 19 31 19 26 31 26 30 5 6 7 32 17 31 3 4 5 1 11 12 1 7 11 1 15 17 1 12 15 1 5 7 1 3 5 34 32 33 34 1 17 34 17 32 35 1 34 38 35 36 38 36 37 40 35 38 40 38 39 43 41 42 44 41 43 45 41 44 45 40 41 46 35 40 46 40 45 48 35 46 48 46 47 49 35 48 50 35 49 52 50 51 54 35 50 54 50 52 54 52 53 129 130 131 129 131 132 129 132 2 127 128 129 126 127 129 126 129 2 125 126 2 58 54 55 58 55 56 58 56 57 60 35 54 60 58 59 60 54 58 122 123 124 122 124 125 122 125 2 61 35 60 65 61 62 65 62 63 65 63 64 118 119 120 118 120 121 118 121 122 66 35 61 66 61 65 117 118 122 67 2 1 67 1 35 67 35 66 115 116 117 115 117 122 114 115 122 111 114 122 111 112 113 111 113 114 110 111 122 110 122 2 109 110 2 108 109 2 106 107 108 106 108 2 103 104 105 103 105 106 103 106 2 101 102 103 101 103 2 68 101 2 68 2 67 68 100 101 97 98 99 96 97 99 96 99 100 95 96 100 74 71 72 74 72 73 93 100 68 93 95 100 93 68 69 93 69 70 93 70 71 93 94 95 77 71 74 77 74 75 77 75 76 91 92 93 79 77 78 89 90 91 80 77 79 87 88 89 86 91 93 86 89 91 86 87 89 82 77 80 82 80 81 83 71 77 83 77 82 84 93 71 84 85 86 84 86 93 84 71 83 
66 64 1 0 0.0245874003024561
-20 8.99999994595137 0 -19.992772737231 9.29440599191588 0 -19.9711083600332 9.58810278792874 0 -19.9350590597887 9.88038279268354 0 -19.8847116824194 10.1705418780481 0 -19.8201875191673 10.457881025371 0 -19.7416420143933 10.7417080094781 0 -19.6492643910981 11.0213390663047 0 -19.5432771950677 11.2961005401419 0 -19.4239357587407 11.5653305065331 0 -19.2915275860901 11.8283803669074 0 -19.1463716600016 12.0846164111107 0 -18.9888176738153 12.333421344069 0 -18.8192451888839 12.574195772906 0 -18.6380627201764 12.8063596509332 0 -18.4457067521298 13.0293536750335 0 -18.2426406871193 13.2426406330707 0 -18.0293537290821 13.4457066980811 0 -17.8063597049819 13.6380626661278 0 -17.5741958269546 13.8192451348352 0 -17.3334213981176 13.9888176197666 0 -17.0846164651593 14.146371605953 0 -16.828380420956 14.2915275320415 0 -16.5653305605817 14.423935704692 0 -16.2961005941905 14.5432771410191 0 -16.0213391203533 14.6492643370495 0 -15.7417080635268 14.7416419603446 0 -15.4578810794196 14.8201874651186 0 -15.1705419320968 14.8847116283708 0 -14.8803828467322 14.9350590057401 0 -14.5881028419774 14.9711083059846 0 -14.2944060459645 14.9927726831824 0 -14 14.9999999729757 0 -9.99999999999999 7.99999993426947 25 -5.99999999999999 11.9999999671347 25 -6.19627069730966 11.9951817590902 25 -6.39206856131823 11.9807388409583 25 -6.58692189782144 11.9567059741286 25 -6.7803612880645 11.9231410558824 25 -6.97192071961305 11.8801249470476 25 -7.16113870901784 11.8277612771983 25 -7.34755941356887 11.7661761950016 25 -7.53073372946035 11.6955180643146 25 -7.71022037372112 11.6159571067632 25 -7.88558694730398 11.5276849916629 25 -8.05641097677288 11.4309143742706 25 -8.2222809320784 11.3258783834797 25 -8.38279721796972 11.2128300601921 25 -8.53757313665457 11.0920417477204 25 -8.68623581938806 10.9638044356893 25 -8.82842712474618 10.8284270590157 25 -8.96380450141982 10.6862357536575 25 -9.09204181345093 10.5375730709241 25 -9.21283012592257 10.3827971522392 25 -9.32587844921017 10.2222808663479 25 -9.43091444000107 10.0564109110424 25 -9.52768505739341 9.88558688157347 25 -9.61595717249376 9.71022030799061 25 -9.69551813004513 9.53073366372984 25 -9.76617626073207 9.34755934783836 25 -9.82776134292882 9.16113864328733 25 -9.88012501277816 8.97192065388254 25 -9.92314112161291 8.780361222334 25 -9.95670603985911 8.58692183209093 25 -9.98073890668878 8.39206849558773 25 -9.99518182482068 8.19627063157916 25 6.28318530717959 0 6.23409792196725 0 6.18501053675491 0 6.13592315154256 0 6.08683576633022 0 6.03774838111788 0 5.98866099590554 0 5.9395736106932 0 5.89048622548086 0 5.84139884026852 0 5.79231145505618 0 5.74322406984384 0 5.6941366846315 0 5.64504929941916 0 5.59596191420682 0 5.54687452899448 0 5.49778714378214 0 5.4486997585698 0 5.39961237335746 0 5.35052498814512 0 5.30143760293278 0 5.25235021772044 0 5.20326283250809 0 5.15417544729575 0 5.10508806208341 0 5.05600067687107 0 5.00691329165873 0 4.95782590644639 0 4.90873852123405 0 4.85965113602171 0 4.81056375080937 0 4.76147636559703 0 4.71238898038469 0 6.28318530717959 1 4.71238898038469 1 4.76147636559703 1 4.81056375080937 1 4.85965113602171 1 4.90873852123405 1 4.95782590644639 1 5.00691329165873 1 5.05600067687107 1 5.10508806208341 1 5.15417544729575 1 5.20326283250809 1 5.25235021772044 1 5.30143760293278 1 5.35052498814512 1 5.39961237335746 1 5.4486997585698 1 5.49778714378214 1 5.54687452899448 1 5.59596191420682 1 5.64504929941916 1 5.6941366846315 1 5.74322406984384 1 5.79231145505618 1 5.84139884026852 1 5.89048622548086 1 5.9395736106932 1 5.98866099590554 1 6.03774838111788 1 6.08683576633022 1 6.13592315154256 1 6.1850105367549 1 6.23409792196724 1 36 33 32 36 35 33 37 36 32 37 32 31 38 37 31 38 31 30 39 38 30 39 30 29 40 39 29 40 29 28 41 40 28 41 28 27 42 41 27 42 27 26 43 42 26 43 26 25 44 43 25 44 25 24 45 44 24 45 24 23 46 45 23 46 23 22 47 46 22 47 22 21 48 47 21 48 21 20 49 20 19 49 48 20 50 19 18 50 49 19 51 18 17 51 50 18 52 17 16 52 51 17 53 16 15 53 52 16 54 15 14 54 53 15 55 14 13 55 54 14 56 13 12 56 55 13 57 12 11 57 56 12 58 11 10 58 57 11 59 10 9 59 58 10 60 9 8 60 59 9 61 8 7 61 60 8 62 7 6 62 61 7 63 6 5 63 62 6 64 5 4 64 63 5 65 4 3 65 64 4 66 3 2 66 65 3 34 2 1 34 66 2 
11 16 1 0 0.75000000168902
-14 -15 0 14 -15 0 5.99999996396758 -12 25 -6.00000000000001 -12 25 5.99999999324392 -14.25 6.25 -6.00000000225203 -14.25 6.25 -9.00810626092152e-09 -13.5 12.5 -4.00000000675608 -12.75 18.75 3.99999997973176 -12.75 18.75 -8.25000000168902 -13.875 9.375 8.24999998817686 -13.875 9.375 -14 0 14 0 14 1 -14 1 7 0.25 -7 0.25 0 0.5 -7 0.75 7 0.75 -10.5 0.375 10.5 0.375 5 1 2 5 6 1 5 7 6 8 3 4 9 3 8 9 8 7 10 4 1 10 1 6 10 8 4 10 6 7 10 7 8 11 2 3 11 7 5 11 3 9 11 5 2 11 9 7 
66 64 1 0 0.0245874003024506
20 -9.00000000000001 0 19.992772737231 -9.29440604596452 0 19.9711083600332 -9.58810284197737 0 19.9350590597887 -9.88038284673218 0 19.8847116824194 -10.1705419320968 0 19.8201875191673 -10.4578810794196 0 19.7416420143933 -10.7417080635268 0 19.6492643910981 -11.0213391203533 0 19.5432771950677 -11.2961005941905 0 19.4239357587407 -11.5653305605817 0 19.2915275860901 -11.828380420956 0 19.1463716600016 -12.0846164651593 0 18.9888176738153 -12.3334213981176 0 18.8192451888839 -12.5741958269546 0 18.6380627201764 -12.8063597049819 0 18.4457067521298 -13.0293537290821 0 18.2426406871193 -13.2426406871193 0 18.0293537290821 -13.4457067521298 0 17.8063597049819 -13.6380627201764 0 17.5741958269546 -13.8192451888839 0 17.3334213981176 -13.9888176738153 0 17.0846164651593 -14.1463716600016 0 16.828380420956 -14.2915275860901 0 16.5653305605817 -14.4239357587407 0 16.2961005941906 -14.5432771950677 0 16.0213391203533 -14.6492643910981 0 15.7417080635268 -14.7416420143933 0 15.4578810794196 -14.8201875191673 0 15.1705419320968 -14.8847116824194 0 14.8803828467322 -14.9350590597887 0 14.5881028419774 -14.9711083600332 0 14.2944060459645 -14.992772737231 0 14 -15 0 9.9999999819838 -8 25 5.99999996396758 -12 25 6.19627066127725 -11.9951818248207 25 6.39206852528582 -11.9807389066888 25 6.58692186178903 -11.9567060398591 25 6.78036125203209 -11.9231411216129 25 6.97192068358064 -11.8801250127782 25 7.16113867298543 -11.8277613429288 25 7.34755937753646 -11.7661762607321 25 7.53073369342794 -11.6955181300451 25 7.71022033768871 -11.6159571724938 25 7.88558691127157 -11.5276850573934 25 8.05641094074046 -11.4309144400011 25 8.22228089604599 -11.3258784492102 25 8.38279718193731 -11.2128301259226 25 8.53757310062216 -11.092041813451 25 8.68623578335565 -10.9638045014198 25 8.82842708871377 -10.8284271247462 25 8.96380446538741 -10.6862358193881 25 9.09204177741852 -10.5375731366546 25 9.21283008989015 -10.3827972179697 25 9.32587841317776 -10.2222809320784 25 9.43091440396866 -10.0564109767729 25 9.527685021361 -9.885586947304 25 9.61595713646135 -9.71022037372114 25 9.69551809401272 -9.53073372946037 25 9.76617622469966 -9.3475594135689 25 9.82776130689641 -9.16113870901787 25 9.88012497674575 -8.97192071961307 25 9.9231410855805 -8.78036128806453 25 9.9567060038267 -8.58692189782147 25 9.98073887065637 -8.39206856131826 25 9.99518178878827 -8.19627069730969 25 3.14159265358979 0 3.09250526837745 0 3.04341788316511 0 2.99433049795277 0 2.94524311274043 0 2.89615572752809 0 2.84706834231575 0 2.79798095710341 0 2.74889357189107 0 2.69980618667873 0 2.65071880146639 0 2.60163141625405 0 2.55254403104171 0 2.50345664582937 0 2.45436926061703 0 2.40528187540469 0 2.35619449019235 0 2.30710710498001 0 2.25801971976767 0 2.20893233455533 0 2.15984494934299 0 2.11075756413065 0 2.06167017891831 0 2.01258279370597 0 1.96349540849362 0 1.91440802328128 0 1.86532063806894 0 1.8162332528566 0 1.76714586764426 0 1.71805848243192 0 1.66897109721958 0 1.61988371200724 0 1.5707963267949 0 3.14159265358979 1 1.5707963267949 1 1.61988371200724 1 1.66897109721958 1 1.71805848243192 1 1.76714586764426 1 1.8162332528566 1 1.86532063806894 1 1.91440802328128 1 1.96349540849362 1 2.01258279370596 1 2.0616701789183 1 2.11075756413064 1 2.15984494934298 1 2.20893233455532 1 2.25801971976766 1 2.30710710498 1 2.35619449019234 1 2.40528187540468 1 2.45436926061702 1 2.50345664582936 1 2.5525440310417 1 2.60163141625404 1 2.65071880146638 1 2.69980618667872 1 2.74889357189106 1 2.79798095710341 1 2.84706834231575 1 2.89615572752809 1 2.94524311274043 1 2.99433049795277 1 3.04341788316511 1 3.09250526837745 1 36 33 32 36 35 33 37 36 32 37 32 31 38 37 31 38 31 30 39 38 30 39 30 29 40 39 29 40 29 28 41 40 28 41 28 27 42 41 27 42 27 26 43 42 26 43 26 25 44 43 25 44 25 24 45 44 24 45 24 23 46 45 23 46 23 22 47 46 22 47 22 21 48 47 21 48 21 20 49 20 19 49 48 20 50 19 18 50 49 19 51 18 17 51 50 18 52 17 16 52 51 17 53 16 15 53 52 16 54 15 14 54 53 15 55 14 13 55 54 14 56 13 12 56 55 13 57 12 11 57 56 12 58 11 10 58 57 11 59 10 9 59 58 10 60 9 8 60 59 9 61 8 7 61 60 8 62 7 6 62 61 7 63 6 5 63 62 6 64 5 4 64 63 5 65 4 3 65 64 4 66 3 2 66 65 3 34 2 1 34 66 2 
5 4 1 0 0.124999996621963
20 -9.00000000000001 0 20 8.99999994595137 0 9.9999999819838 8 25 9.9999999819838 -8 25 15 -1.35121616118283e-08 12.5 -9.00000000000003 0 8.99999994595136 0 8.99999994595136 1 -9.00000000000003 1 -2.70243347699761e-08 0.5 5 1 2 5 2 3 5 3 4 5 4 1 
66 64 1 0 0.0245873985591525
14 14.9999999729757 0 14.2944060459645 14.9927726831824 0 14.5881028419774 14.9711083059846 0 14.8803828467322 14.9350590057401 0 15.1705419320968 14.8847116283708 0 15.4578810794196 14.8201874651186 0 15.7417080635268 14.7416419603446 0 16.0213391203533 14.6492643370495 0 16.2961005941905 14.5432771410191 0 16.5653305605817 14.423935704692 0 16.828380420956 14.2915275320415 0 17.0846164651593 14.146371605953 0 17.3334213981176 13.9888176197666 0 17.5741958269546 13.8192451348352 0 17.8063597049819 13.6380626661278 0 18.0293537290821 13.4457066980811 0 18.2426406871193 13.2426406330707 0 18.4457067521298 13.0293536750335 0 18.6380627201764 12.8063596509333 0 18.8192451888839 12.574195772906 0 18.9888176738153 12.333421344069 0 19.1463716600016 12.0846164111107 0 19.2915275860901 11.8283803669074 0 19.4239357587407 11.5653305065331 0 19.5432771950677 11.2961005401419 0 19.6492643910981 11.0213390663047 0 19.7416420143932 10.7417080094782 0 19.8201875191673 10.457881025371 0 19.8847116824194 10.1705418780482 0 19.9350590597887 9.88038279268356 0 19.9711083600332 9.58810278792876 0 19.992772737231 9.2944059919159 0 20 8.99999994595137 0 5.99999996396759 12 25 9.9999999819838 8 25 9.99518178878828 8.19627069730967 25 9.98073887065637 8.39206856131824 25 9.95670600382671 8.58692189782145 25 9.92314108558051 8.78036128806451 25 9.88012497674576 8.97192071961306 25 9.82776130689642 9.16113870901785 25 9.76617622469967 9.34755941356888 25 9.69551809401273 9.53073372946036 25 9.61595713646136 9.71022037372113 25 9.52768502136101 9.88558694730399 25 9.43091440396867 10.0564109767729 25 9.32587841317777 10.2222809320784 25 9.21283008989016 10.3827972179697 25 9.09204177741853 10.5375731366546 25 8.96380446538742 10.6862358193881 25 8.82842708871378 10.8284271247462 25 8.68623578335566 10.9638045014198 25 8.53757310062217 11.0920418134509 25 8.38279718193732 11.2128301259226 25 8.22228089604599 11.3258784492102 25 8.05641094074047 11.4309144400011 25 7.88558691127157 11.5276850573934 25 7.71022033768871 11.6159571724938 25 7.53073369342794 11.6955181300451 25 7.34755937753646 11.7661762607321 25 7.16113867298543 11.8277613429288 25 6.97192068358064 11.8801250127782 25 6.7803612520321 11.9231411216129 25 6.58692186178903 11.9567060398591 25 6.39206852528582 11.9807389066888 25 6.19627066127725 11.9951818248207 25 4.71238898038469 0 4.66330159517235 0 4.61421420996001 0 4.56512682474767 0 4.51603943953533 0 4.46695205432299 0 4.41786466911065 0 4.36877728389831 0 4.31968989868597 0 4.27060251347362 0 4.22151512826128 0 4.17242774304894 0 4.1233403578366 0 4.07425297262426 0 4.02516558741192 0 3.97607820219958 0 3.92699081698724 0 3.8779034317749 0 3.82881604656256 0 3.77972866135022 0 3.73064127613788 0 3.68155389092554 0 3.6324665057132 0 3.58337912050086 0 3.53429173528852 0 3.48520435007618 0 3.43611696486384 0 3.3870295796515 0 3.33794219443916 0 3.28885480922682 0 3.23976742401448 0 3.19068003880214 0 3.14159265358979 0 4.71238898038469 1 3.14159265358979 1 3.19068003880213 1 3.23976742401447 1 3.28885480922681 1 3.33794219443916 1 3.3870295796515 1 3.43611696486384 1 3.48520435007618 1 3.53429173528852 1 3.58337912050086 1 3.6324665057132 1 3.68155389092554 1 3.73064127613788 1 3.77972866135022 1 3.82881604656256 1 3.8779034317749 1 3.92699081698724 1 3.97607820219958 1 4.02516558741192 1 4.07425297262426 1 4.1233403578366 1 4.17242774304894 1 4.22151512826129 1 4.27060251347363 1 4.31968989868597 1 4.36877728389831 1 4.41786466911065 1 4.46695205432299 1 4.51603943953533 1 4.56512682474767 1 4.61421420996001 1 4.66330159517235 1 35 33 32 36 35 32 37 36 32 37 31 30 37 32 31 38 37 30 39 38 30 39 30 29 40 39 29 40 29 28 41 40 28 41 27 26 41 28 27 42 41 26 43 26 25 43 42 26 44 43 25 44 24 23 44 25 24 45 44 23 46 23 22 46 45 23 47 22 21 47 46 22 48 20 19 48 21 20 48 47 21 49 48 19 50 19 18 50 49 19 51 17 16 51 18 17 51 50 18 52 51 16 53 15 14 53 16 15 53 52 16 54 14 13 54 53 14 55 13 12 55 54 13 56 12 11 56 55 12 57 56 11 58 10 9 58 11 10 58 57 11 59 9 8 59 58 9 60 59 8 61 8 7 61 60 8 62 6 5 62 7 6 62 61 7 63 62 5 64 5 4 64 63 5 65 3 2 65 4 3 65 64 4 66 65 2 34 2 1 34 66 2 
11 16 1 0 0.75000000168902
-14 14.9999999729757 0 14 14.9999999729757 0 -5.99999999999999 11.9999999671347 25 5.99999996396759 12 25 -6.00000000225202 14.25 6.25 5.99999999324392 14.25 6.25 -9.008100931851e-09 13.5 12.5 -4.00000000675607 12.75 18.75 3.99999997973177 12.75 18.75 8.24999998817686 13.875 9.375 -8.25000000168902 13.875 9.375 14 0 -14 0 14 1 -14 1 7 0.25 -7 0.25 0 0.5 7 0.75 -7 0.75 -10.5 0.375 10.5 0.375 5 2 1 5 6 2 5 7 6 8 3 4 8 4 9 8 9 7 10 4 2 10 2 6 10 9 4 10 6 7 10 7 9 11 1 3 11 3 8 11 7 5 11 5 1 11 8 7 

TShapes 63
Ve
1.00000000888178e-07
-20 -9.00000000000003 0
0 0

0101101
*
Ve
1e-07
-20 8.99999994595136 0
0 0

0101101
*
Ed
 1e-07 1 1 0
1  1 0 -9.00000000000003 8.99999994595136
2  1 1 4 -9.00000000000003 8.99999994595136
4 C0 1 4 2 4
6  1 1 4
6  2 2 4
0

0101000
+63 0 -62 0 *
Ve
1.00000010667389e-07
-10 -8 0
0 0

0101101
*
Ed
 1e-07 1 1 0
1  2 0 0 1
2  2 1 0 0 1
2  3 3 0 0 1
4 G1 1 0 3 0
6  3 1 0
6  4 3 0
0

0101000
+63 3 -60 7 *
Ve
1e-07
-10 7.99999993426947 0
0 0

0101101
*
Ed
 1e-07 1 1 0
1  3 0 -8 7.99999993426947
2  4 1 8 -8 7.99999993426947
4 C0 1 8 4 8
6  5 1 8
6  6 4 8
0

0101000
+60 0 -58 0 *
Ed
 1e-07 1 1 0
1  4 0 0 1
2  5 1 0 0 1
2  6 5 0 0 1
4 G1 1 0 5 0
6  7 1 0
6  8 5 0
0

0101000
+62 3 -58 7 *
Wi

0101000
-61 3 +59 0 +57 7 -56 0 *
Fa
0  1e-07 1 0
2  1
0111000
+55 0 *
Ve
1.00000014210855e-07
-14 -15 0
0 0

0101101
*
Ed
 1e-07 1 1 0
1  5 0 4.71238898038469 6.28318530717959
2  7 3 4 4.71238898038469 6.28318530717959
4 C0 3 4 2 4
6  9 3 4
6  10 2 4
0

0101000
+53 0 -63 0 *
Ve
1e-07
-6.00000000000002 -12 0
0 0

0101101
*
Ed
 1e-07 1 1 0
1  6 0 0 1
2  8 3 0 0 1
2  9 6 0 0 1
4 G1 3 0 6 0
6  11 3 0
6  12 6 0
0

0101000
+53 3 -51 7 *
Ed
 1e-07 1 1 0
1  7 0 3.14159265358979 4.71238898038469
2  10 3 8 3.14159265358979 4.71238898038469
4 C0 3 8 4 8
6  13 3 8
6  14 4 8
0

0101000
+60 0 -51 0 *
Wi

0101000
-52 3 +50 0 -49 7 -59 0 *
Fa
0  1e-07 3 0
2  3
0111000
+48 0 *
Ve
1.00000014217792e-07
14 -15 0
0 0

0101101
*
Ed
 1e-07 1 1 0
1  8 0 -14 14
2  11 6 4 -14 14
4 C0 6 4 2 4
6  15 6 4
6  16 2 4
0

0101000
+53 0 -46 0 *
Ve
1.00000000444089e-07
5.99999996396757 -12 0
0 0

0101101
*
Ed
 1e-07 1 1 0
1  9 0 0 1
2  12 6 0 0 1
2  13 7 0 0 1
4 G1 6 0 7 0
6  17 6 0
6  18 7 0
0

0101000
+46 3 -44 7 *
Ed
 1e-07 1 1 0
1  10 0 -6.00000000000002 5.99999996396757
2  14 6 8 -6.00000000000002 5.99999996396757
4 C0 6 8 4 8
6  19 6 8
6  20 4 8
0

0101000
+51 0 -44 0 *
Wi

0101000
+45 3 +43 0 -42 7 -50 0 *
Fa
0  1e-07 6 0
2  6
0111000
+41 0 *
Ve
1.00000000444089e-07
20 -9.00000000000003 0
0 0

0101101
*
Ed
 1e-07 1 1 0
1  11 0 3.14159265358979 4.71238898038469
2  15 7 4 3.14159265358979 4.71238898038469
4 C0 7 4 2 4
6  21 7 4
6  22 2 4
0

0101000
+39 0 -46 0 *
Ve
1.18016213410021e-07
9.99999998198379 -8 0
0 0

0101101
*
Ed
 1e-07 1 1 0
1  12 0 0 1
2  16 7 0 0 1
2  17 8 0 0 1
4 G1 7 0 8 0
6  23 7 0
6  24 8 0
0

0101000
+39 3 -37 7 *
Ed
 1e-07 1 1 0
1  13 0 4.71238898038469 6.28318530717959
2  18 7 8 4.71238898038469 6.28318530717959
4 C0 7 8 4 8
6  25 7 8
6  26 4 8
0

0101000
+44 0 -37 0 *
Wi

0101000
-38 3 +36 0 -35 7 -43 0 *
Fa
0  1e-07 7 0
2  7
0111000
+34 0 *
Ve
1e-07
20 8.99999994595136 0
0 0

0101101
*
Ed
 1e-07 1 1 0
1  14 0 -9.00000000000003 8.99999994595136
2  19 8 4 -9.00000000000003 8.99999994595136
4 C0 8 4 2 4
6  27 8 4
6  28 2 4
0

0101000
+39 0 -32 0 *
Ve
1.18016212521843e-07
9.99999998198379 8 0
0 0

0101101
*
Ed
 1e-07 1 1 0
1  15 0 0 1
2  20 8 0 0 1
2  21 9 0 0 1
4 G1 8 0 9 0
6  29 8 0
6  30 9 0
0

0101000
+32 3 -30 7 *
Ed
 1e-07 1 1 0
1  16 0 -8 8
2  22 8 8 -8 8
4 C0 8 8 4 8
6  31 8 8
6  32 4 8
0

0101000
+37 0 -30 0 *
Wi

0101000
+31 3 +29 0 -28 7 -36 0 *
Fa
0  1e-07 8 0
2  8
0111000
+27 0 *
Ve
1.27024320559121e-07
14 14.9999999729757 0
0 0

0101101
*
Ed
 1e-07 1 1 0
1  17 0 1.5707963267949 3.14159265358979
2  23 9 4 1.5707963267949 3.14159265358979
4 C0 9 4 2 4
6  33 9 4
6  34 2 4
0

0101000
+25 0 -32 0 *
Ve
1e-07
5.99999996396757 12 0
0 0

0101101
*
Ed
 1e-07 1 1 0
1  18 0 0 1
2  24 9 0 0 1
2  25 10 0 0 1
4 G1 9 0 10 0
6  35 9 0
6  36 10 0
0

0101000
+25 3 -23 7 *
Ed
 1e-07 1 1 0
1  19 0 0 1.5707963267949
2  26 9 8 0 1.5707963267949
4 C0 9 8 4 8
6  37 9 8
6  38 4 8
0

0101000
+30 0 -23 0 *
Wi

0101000
-24 3 +22 0 -21 7 -29 0 *
Fa
0  1e-07 9 0
2  9
0111000
+20 0 *
Ve
1.27024320559121e-07
-14 14.9999999729757 0
0 0

0101101
*
Ed
 1e-07 1 1 0
1  20 0 -14 14
2  27 10 4 -14 14
4 C0 10 4 2 4
6  39 10 4
6  40 2 4
0

0101000
+18 0 -25 0 *
Ve
1.32865265175985e-07
-6 11.9999999671347 0
0 0

0101101
*
Ed
 1e-07 1 1 0
1  21 0 0 1
2  28 10 0 0 1
2  29 5 0 0 1
4 G1 10 0 5 0
6  41 10 0
6  42 5 0
0

0101000
+18 3 -16 7 *
Ed
 1e-07 1 1 0
1  22 0 -6 5.99999996396757
2  30 10 8 -6 5.99999996396757
4 C0 10 8 4 8
6  43 10 8
6  44 4 8
0

0101000
+16 0 -23 0 *
Wi

0101000
-17 3 +15 0 +14 7 -22 0 *
Fa
0  1e-07 10 0
2  10
0111000
+13 0 *
Ed
 1e-07 1 1 0
1  23 0 0 1.5707963267949
2  31 5 4 0 1.5707963267949
4 C0 5 4 2 4
6  45 5 4
6  46 2 4
0

0101000
+62 0 -18 0 *
Ed
 1e-07 1 1 0
1  24 0 1.5707963267949 3.14159265358979
2  32 5 8 1.5707963267949 3.14159265358979
4 C0 5 8 4 8
6  47 5 8
6  48 4 8
0

0101000
+16 0 -58 0 *
Wi

0101000
-11 3 +56 0 -10 7 -15 0 *
Fa
0  1e-07 5 0
2  5
0111000
+9 0 *
Wi

0101100
-61 0 -52 0 +45 0 -38 0 +31 0 -24 0 -17 0 -11 0 *
Fa
0  1e-07 2 0
2  2
0111000
-7 3 *
Wi

0101100
-57 7 +49 7 +42 7 +35 7 +28 7 +21 7 -14 7 +10 7 *
Fa
0  1e-07 4 0
2  4
0111000
+5 0 *
Sh

0101100
+54 0 +47 0 +40 0 +33 0 +26 0 +19 0 +12 0 +8 0 +6 0 +4 0 
*
So

0100100
+3 0 *
Co

1100000
+2 0 *

+1 0 